<svg width="9" height="9" viewBox="0 0 9 9" fill="none" xmlns="http://www.w3.org/2000/svg">
<path d="M0 8.75L2.31489 8.23559C2.9288 8.56389 3.63016 8.75 4.375 8.75C6.79122 8.75 8.75 6.79122 8.75 4.375C8.75 1.95875 6.79122 0 4.375 0C1.95875 0 0 1.95875 0 4.375C0 5.11984 0.18613 5.8212 0.514417 6.4351L0 8.75ZM5.88381 2.1875L5.80724 3.06261H6.5625V3.93759H5.73068L5.65412 4.81259H6.5625V5.68759H5.5776L5.50104 6.5625H4.62271L4.69923 5.68759H3.82091L3.74434 6.5625H2.86601L2.94255 5.68759H2.1875V4.81259H3.01911L3.09566 3.93759H2.1875V3.06261H3.17221L3.24877 2.1875H4.12711L4.05055 3.06261H4.92892L5.00548 2.1875H5.88381ZM3.97399 3.93759L3.89747 4.81259H4.77579L4.85236 3.93759H3.97399Z" fill="#7D52F4" fill-opacity="0.4"/>
</svg>
