<svg width="8" height="8" viewBox="0 0 8 8" fill="none" xmlns="http://www.w3.org/2000/svg">
<path d="M4 0C6.20914 0 8 1.79086 8 4C8 6.20914 6.20914 8 4 8C1.79086 8 0 6.20914 0 4C6.44256e-08 1.79086 1.79086 6.44266e-08 4 0ZM5.05176 3.24902C4.57078 3.24918 4.35563 3.51382 4.23535 3.69922V3.31348H3.32812C3.34004 3.57127 3.32812 6.03711 3.32812 6.03711H4.23535V4.51562C4.23535 4.43437 4.24079 4.35318 4.26465 4.29492C4.33016 4.1323 4.48003 3.96387 4.73047 3.96387C5.05823 3.96406 5.18937 4.21344 5.18945 4.5791V6.03613H6.0957V4.47461C6.09558 3.63827 5.64819 3.24902 5.05176 3.24902ZM1.91992 6.03613H2.82715V3.3125H1.91992V6.03613ZM2.37988 2C2.06978 2 1.86621 2.20365 1.86621 2.4707C1.86634 2.7321 2.06393 2.94141 2.36816 2.94141H2.37305C2.68902 2.94141 2.88659 2.7321 2.88672 2.4707C2.88084 2.20376 2.68976 2.00016 2.37988 2Z" fill="#AAAAAA"/>
</svg>
