<svg width="20" height="22" viewBox="0 0 20 22" fill="none" xmlns="http://www.w3.org/2000/svg">
<path fill-rule="evenodd" clip-rule="evenodd" d="M7.12482 4.90002C6.94909 4.90002 6.80664 5.04247 6.80664 5.21821C6.80664 5.39394 6.94909 5.53639 7.12482 5.53639H9.03391C9.20965 5.53639 9.35209 5.39394 9.35209 5.21821C9.35209 5.04247 9.20965 4.90002 9.03391 4.90002H7.12482Z" fill="#47C2FF" fill-opacity="0.4"/>
<path fill-rule="evenodd" clip-rule="evenodd" d="M5.69305 4.31818H10.3067C10.8339 4.31818 11.2612 4.74555 11.2612 5.27273V16.7273C11.2612 17.2545 10.8339 17.6818 10.3067 17.6818H5.69305C5.16587 17.6818 4.7385 17.2545 4.7385 16.7273V5.27273C4.7385 4.74555 5.16587 4.31818 5.69305 4.31818ZM4.42032 5.27273C4.42032 4.56982 4.99014 4 5.69305 4H10.3067C11.0096 4 11.5794 4.56982 11.5794 5.27273V7.65909C11.6673 7.65909 11.7385 7.73032 11.7385 7.81818V9.09091C11.7385 9.17877 11.6673 9.25 11.5794 9.25V16.7273C11.5794 17.4302 11.0096 18 10.3067 18H5.69305C4.99014 18 4.42032 17.4302 4.42032 16.7273V9.25C4.33246 9.25 4.26123 9.17877 4.26123 9.09091V8.13636C4.26123 8.0485 4.33246 7.97727 4.42032 7.97727V7.81818C4.33246 7.81818 4.26123 7.74696 4.26123 7.65909V7.02273C4.26123 6.93486 4.33246 6.86364 4.42032 6.86364V6.70455C4.33246 6.70455 4.26123 6.63332 4.26123 6.54545V6.22727C4.26123 6.13941 4.33246 6.06818 4.42032 6.06818V5.27273Z" fill="#47C2FF" fill-opacity="0.4"/>
<path d="M10.3071 3.84961C11.0926 3.84985 11.7289 4.48698 11.729 5.27246V7.54883C11.8238 7.60161 11.8882 7.70212 11.8882 7.81836V9.09082C11.8882 9.2069 11.8236 9.30653 11.729 9.35938V16.7275C11.7289 17.513 11.0926 18.1502 10.3071 18.1504H5.69287C4.90729 18.1503 4.27016 17.5131 4.27002 16.7275V9.35938C4.17569 9.30645 4.11084 9.20668 4.11084 9.09082V8.13672C4.11084 8.03967 4.15709 7.95413 4.22705 7.89746C4.15726 7.84081 4.11087 7.75607 4.11084 7.65918V7.02246C4.11092 6.92538 4.15698 6.83981 4.22705 6.7832C4.15752 6.72662 4.11098 6.6425 4.11084 6.5459V6.22754C4.11084 6.11154 4.1755 6.01088 4.27002 5.95801V5.27246C4.27016 4.48689 4.90729 3.84971 5.69287 3.84961H10.3071ZM5.69287 4.46777C5.2487 4.46787 4.88833 4.82831 4.88818 5.27246V16.7275C4.88833 17.1717 5.2487 17.5321 5.69287 17.5322H10.3071C10.7512 17.532 11.1107 17.1716 11.1108 16.7275V5.27246C11.1107 4.82839 10.7512 4.46801 10.3071 4.46777H5.69287Z" stroke="#47C2FF" stroke-opacity="0.4" stroke-width="0.3"/>
</svg>
