<svg width="11" height="6" viewBox="0 0 11 6" fill="none" xmlns="http://www.w3.org/2000/svg">
<path d="M10.9091 0.466563V2.54743C10.9091 2.8056 10.6917 3.014 10.4224 3.014C10.1531 3.014 9.93572 2.8056 9.93572 2.54743V1.55365L6.7398 4.61742C6.55649 4.79316 6.23365 4.79316 6.05033 4.61742L4.09061 2.73872L0.831424 5.86314C0.735709 5.9549 0.610792 6 0.487498 6C0.362582 6 0.237666 5.9549 0.143573 5.86314C-0.0478576 5.68118 -0.0478576 5.38569 0.143573 5.20373L3.74668 1.74806C3.92838 1.57387 4.25283 1.57387 4.43453 1.74806L6.39426 3.62831L9.20569 0.933126H8.25178C7.9841 0.933126 7.76509 0.724728 7.76509 0.466563C7.76509 0.208398 7.9841 0 8.25178 0H10.4224C10.6917 0 10.9091 0.208398 10.9091 0.466563Z" fill="#1FC16B"/>
</svg>
