<svg width="11" height="6" viewBox="0 0 11 6" fill="none" xmlns="http://www.w3.org/2000/svg">
<path d="M10.9091 5.53344V3.45257C10.9091 3.1944 10.6917 2.986 10.4224 2.986C10.1531 2.986 9.93572 3.1944 9.93572 3.45257V4.44635L6.7398 1.38258C6.55649 1.20684 6.23365 1.20684 6.05033 1.38258L4.09061 3.26128L0.831424 0.136858C0.735709 0.0451007 0.610792 0 0.487498 0C0.362582 0 0.237666 0.0451007 0.143573 0.136858C-0.0478576 0.318818 -0.0478576 0.614308 0.143573 0.796268L3.74668 4.25194C3.92838 4.42613 4.25283 4.42613 4.43453 4.25194L6.39426 2.37169L9.20569 5.06687H8.25178C7.9841 5.06687 7.76509 5.27527 7.76509 5.53344C7.76509 5.7916 7.9841 6 8.25178 6H10.4224C10.6917 6 10.9091 5.7916 10.9091 5.53344Z" fill="#FB3748"/>
</svg>
