<svg width="12" height="9" viewBox="0 0 12 9" fill="none" xmlns="http://www.w3.org/2000/svg">
<path d="M1.575 6.30026V2.88776C1.575 2.26118 1.82391 1.66027 2.26696 1.21722C2.71001 0.774162 3.31093 0.525256 3.9375 0.525256C4.56407 0.525256 5.16498 0.774162 5.60804 1.21722C6.05109 1.66027 6.3 2.26118 6.3 2.88776V6.56276C6.3 6.91085 6.43828 7.24469 6.68442 7.49083C6.93056 7.73698 7.2644 7.87526 7.6125 7.87526C7.9606 7.87526 8.29444 7.73698 8.54058 7.49083C8.78672 7.24469 8.925 6.91085 8.925 6.56276V3.06101C8.57457 2.93716 8.2792 2.6934 8.09111 2.37283C7.90302 2.05226 7.83432 1.67552 7.89715 1.30919C7.95998 0.942865 8.15029 0.610546 8.43445 0.370973C8.71862 0.1314 9.07832 0 9.45 0C9.82168 0 10.1814 0.1314 10.4655 0.370973C10.7497 0.610546 10.94 0.942865 11.0029 1.30919C11.0657 1.67552 10.997 2.05226 10.8089 2.37283C10.6208 2.6934 10.3254 2.93716 9.975 3.06101V6.56276C9.975 7.18933 9.72609 7.79024 9.28304 8.2333C8.83998 8.67635 8.23907 8.92526 7.6125 8.92526C6.98593 8.92526 6.38501 8.67635 5.94196 8.2333C5.49891 7.79024 5.25 7.18933 5.25 6.56276V2.88776C5.25 2.53966 5.11172 2.20582 4.86558 1.95968C4.61944 1.71354 4.2856 1.57526 3.9375 1.57526C3.5894 1.57526 3.25556 1.71354 3.00942 1.95968C2.76328 2.20582 2.625 2.53966 2.625 2.88776V6.30026H4.2L2.1 8.92526L0 6.30026H1.575Z" fill="#99A0AE"/>
</svg>
