<svg width="8" height="8" viewBox="0 0 8 8" fill="none" xmlns="http://www.w3.org/2000/svg">
<path d="M4 0C6.20914 0 8 1.79086 8 4C8 6.20914 6.20914 8 4 8C1.79086 8 0 6.20914 0 4C6.44256e-08 1.79086 1.79086 6.44266e-08 4 0Z" fill="#AAAAAA"/>
<path fill-rule="evenodd" clip-rule="evenodd" d="M3.2605 2H2L3.49452 3.96376L2.09561 5.61111H2.74195L3.79999 4.36517L4.7395 5.59966H6L4.46206 3.57884L4.46478 3.58232L5.78897 2.02294H5.14263L4.15926 3.18096L3.2605 2ZM2.69578 2.34392H3.08819L5.30422 5.25572H4.91181L2.69578 2.34392Z" fill="white"/>
</svg>
