<svg width="8" height="8" viewBox="0 0 8 8" fill="none" xmlns="http://www.w3.org/2000/svg">
<path d="M4 0C6.20914 0 8 1.79086 8 4C8 6.20914 6.20914 8 4 8C1.79086 8 0 6.20914 0 4C6.44256e-08 1.79086 1.79086 6.44266e-08 4 0ZM4 2.5332C3.99957 2.5332 2.66568 2.53346 2.33301 2.625C2.14962 2.67535 2.00524 2.82348 1.95605 3.01172C1.8679 3.34958 1.86622 4.05095 1.86621 4.06641C1.86621 4.06641 1.86692 4.77943 1.95605 5.12109C2.00513 5.30958 2.14943 5.45839 2.33301 5.50879C2.66576 5.60029 3.99957 5.59961 4 5.59961C4 5.59961 5.33424 5.60031 5.66699 5.50879C5.85057 5.45839 5.99487 5.30959 6.04395 5.12109C6.13311 4.77943 6.13379 4.06641 6.13379 4.06641C6.13378 4.05095 6.13212 3.34958 6.04395 3.01172C5.99476 2.82349 5.85038 2.67535 5.66699 2.625C5.33429 2.53345 4 2.5332 4 2.5332Z" fill="#AAAAAA"/>
<path d="M3.6001 4.8V3.46667L4.66676 4.13336L3.6001 4.8Z" fill="#AAAAAA"/>
</svg>
